<svg width="50" height="50" viewBox="0 0 50 50" fill="none" xmlns="http://www.w3.org/2000/svg">
<path fill-rule="evenodd" clip-rule="evenodd" d="M50 50H40V32.5024C40 27.7024 37.8825 25.0244 34.085 25.0244C29.9525 25.0244 27.5 27.8149 27.5 32.5024V50H17.5V17.5H27.5V21.1548C27.5 21.1548 30.6375 15.6494 37.7075 15.6494C44.78 15.6494 50 19.9653 50 28.8953V50ZM6.105 12.3022C2.7325 12.3022 0 9.5474 0 6.1499C0 2.7549 2.7325 0 6.105 0C9.475 0 12.2075 2.7549 12.2075 6.1499C12.21 9.5474 9.475 12.3022 6.105 12.3022ZM0 50H12.5V17.5H0V50Z" fill="white"/>
</svg>
