<svg width="293" height="99" viewBox="0 0 293 99" fill="none" xmlns="http://www.w3.org/2000/svg">
<path d="M72.2712 61.3848L79.974 65.8528L72.2712 70.3209L64.5684 65.8528L72.2712 61.3848Z" fill="#FA693A"/>
<path d="M72.2635 70.3063L72.2551 79.2278L64.5438 74.7744L64.5523 65.8529L72.2635 70.3063Z" fill="#AD4929"/>
<path d="M72.1981 70.3062L79.9094 65.8529L79.9178 74.7743L72.2065 79.2277L72.1981 70.3062Z" fill="#5A28AD"/>
<path d="M49.4245 39.4617L57.1273 43.9297L49.4245 48.3978L41.7217 43.9297L49.4245 39.4617Z" fill="#FA693A"/>
<path d="M49.4168 48.3832L49.4084 57.3047L41.6971 52.8513L41.7056 43.9298L49.4168 48.3832Z" fill="#AD4929"/>
<path d="M49.3514 48.3831L57.0627 43.9298L57.0711 52.8512L49.3599 57.3046L49.3514 48.3831Z" fill="#CF5830"/>
<path d="M41.8093 43.8464L49.5121 48.3145L41.8093 52.7825L34.1064 48.3145L41.8093 43.8464Z" fill="#FA693A"/>
<path d="M41.8016 52.768L41.7932 61.6894L34.0819 57.236L34.0903 48.3146L41.8016 52.768Z" fill="#AD4929"/>
<path d="M41.7362 52.7679L49.4474 48.3145L49.4559 57.236L41.7446 61.6893L41.7362 52.7679Z" fill="#CF5830"/>
<path d="M57.0407 43.8464L64.7435 48.3145L57.0407 52.7825L49.3379 48.3145L57.0407 43.8464Z" fill="#FA693A"/>
<path d="M57.0331 52.768L57.0246 61.6894L49.3133 57.236L49.3218 48.3146L57.0331 52.768Z" fill="#AD4929"/>
<path d="M56.9676 52.7679L64.6789 48.3145L64.6873 57.236L56.9761 61.6893L56.9676 52.7679Z" fill="#CF5830"/>
<path d="M64.6559 48.2307L72.3588 52.6988L64.6559 57.1668L56.9531 52.6988L64.6559 48.2307Z" fill="#FA693A"/>
<path d="M64.6483 57.1523L64.6398 66.0737L56.9286 61.6203L56.937 52.6989L64.6483 57.1523Z" fill="#AD4929"/>
<path d="M64.5829 57.1522L72.2941 52.6988L72.3026 61.6202L64.5913 66.0736L64.5829 57.1522Z" fill="#CF5830"/>
<path d="M42.0407 0L49.7435 4.46805L42.0407 8.93611L34.3379 4.46805L42.0407 0Z" fill="#FA693A"/>
<path d="M42.0331 8.92155L42.0246 17.843L34.3133 13.3896L34.3218 4.46816L42.0331 8.92155Z" fill="#AD4929"/>
<path d="M41.9676 8.92147L49.6789 4.46809L49.6873 13.3895L41.9761 17.8429L41.9676 8.92147Z" fill="#CF5830"/>
<path d="M64.6559 65.7693L72.3588 70.2373L64.6559 74.7054L56.9531 70.2373L64.6559 65.7693Z" fill="#FA693A"/>
<path d="M64.6483 74.6908L64.6398 83.6123L56.9286 79.1589L56.937 70.2374L64.6483 74.6908Z" fill="#AD4929"/>
<path d="M64.5829 74.6908L72.2941 70.2374L72.3026 79.1588L64.5913 83.6122L64.5829 74.6908Z" fill="#CF5830"/>
<path d="M57.0407 70.1541L64.7435 74.6221L57.0407 79.0902L49.3379 74.6221L57.0407 70.1541Z" fill="#FA693A"/>
<path d="M57.0331 79.0756L57.0246 87.997L49.3133 83.5437L49.3218 74.6222L57.0331 79.0756Z" fill="#AD4929"/>
<path d="M56.9676 79.0755L64.6789 74.6221L64.6873 83.5436L56.9761 87.997L56.9676 79.0755Z" fill="#CF5830"/>
<path d="M11.5788 61.3848L19.2816 65.8528L11.5788 70.3209L3.87598 65.8528L11.5788 61.3848Z" fill="#FA693A"/>
<path d="M11.5711 70.3063L11.5627 79.2278L3.85142 74.7744L3.85987 65.8529L11.5711 70.3063Z" fill="#AD4929"/>
<path d="M11.5057 70.3062L19.217 65.8529L19.2254 74.7743L11.5142 79.2277L11.5057 70.3062Z" fill="#CF5830"/>
<path d="M18.9636 65.7693L26.6664 70.2373L18.9636 74.7054L11.2607 70.2373L18.9636 65.7693Z" fill="#FA693A"/>
<path d="M18.9559 74.6908L18.9475 83.6123L11.2362 79.1589L11.2446 70.2374L18.9559 74.6908Z" fill="#AD4929"/>
<path d="M18.8905 74.6908L26.6017 70.2374L26.6102 79.1588L18.8989 83.6122L18.8905 74.6908Z" fill="#CF5830"/>
<path d="M26.5788 70.1541L34.2816 74.6221L26.5788 79.0902L18.876 74.6221L26.5788 70.1541Z" fill="#FA693A"/>
<path d="M26.5711 79.0756L26.5627 87.997L18.8514 83.5437L18.8599 74.6222L26.5711 79.0756Z" fill="#AD4929"/>
<path d="M26.5057 79.0755L34.217 74.6221L34.2254 83.5436L26.5142 87.997L26.5057 79.0755Z" fill="#CF5830"/>
<path d="M34.194 74.5383L41.8969 79.0064L34.194 83.4744L26.4912 79.0064L34.194 74.5383Z" fill="#FA693A"/>
<path d="M34.1864 83.4599L34.1779 92.3813L26.4667 87.9279L26.4751 79.0065L34.1864 83.4599Z" fill="#AD4929"/>
<path d="M34.1209 83.4598L41.8322 79.0064L41.8407 87.9279L34.1294 92.3812L34.1209 83.4598Z" fill="#CF5830"/>
<path d="M49.4245 74.5383L57.1273 79.0064L49.4245 83.4744L41.7217 79.0064L49.4245 74.5383Z" fill="#FA693A"/>
<path d="M49.4168 83.4599L49.4084 92.3813L41.6971 87.9279L41.7056 79.0065L49.4168 83.4599Z" fill="#AD4929"/>
<path d="M49.3514 83.4598L57.0627 79.0064L57.0711 87.9279L49.3599 92.3812L49.3514 83.4598Z" fill="#CF5830"/>
<path d="M11.5788 52.6155L19.2816 57.0835L11.5788 61.5516L3.87598 57.0835L11.5788 52.6155Z" fill="#FA693A"/>
<path d="M11.5711 61.537L11.5627 70.4585L3.85142 66.0051L3.85987 57.0836L11.5711 61.537Z" fill="#AD4929"/>
<path d="M11.5057 61.537L19.217 57.0836L19.2254 66.005L11.5142 70.4584L11.5057 61.537Z" fill="#CF5830"/>
<path d="M11.5788 43.8464L19.2816 48.3145L11.5788 52.7825L3.87598 48.3145L11.5788 43.8464Z" fill="#FA693A"/>
<path d="M11.5711 52.768L11.5627 61.6894L3.85142 57.236L3.85987 48.3146L11.5711 52.768Z" fill="#AD4929"/>
<path d="M11.5057 52.7679L19.217 48.3145L19.2254 57.236L11.5142 61.6893L11.5057 52.7679Z" fill="#CF5830"/>
<path d="M11.5788 35.0769L19.2816 39.545L11.5788 44.013L3.87598 39.545L11.5788 35.0769Z" fill="#FA693A"/>
<path d="M11.5711 43.9984L11.5627 52.9199L3.85142 48.4665L3.85987 39.5451L11.5711 43.9984Z" fill="#AD4929"/>
<path d="M11.5057 43.9984L19.217 39.545L19.2254 48.4664L11.5142 52.9198L11.5057 43.9984Z" fill="#CF5830"/>
<path d="M11.5788 26.3079L19.2816 30.7759L11.5788 35.244L3.87598 30.7759L11.5788 26.3079Z" fill="#FA693A"/>
<path d="M11.5711 35.2294L11.5627 44.1508L3.85142 39.6975L3.85987 30.776L11.5711 35.2294Z" fill="#AD4929"/>
<path d="M11.5057 35.2293L19.217 30.7759L19.2254 39.6974L11.5142 44.1508L11.5057 35.2293Z" fill="#CF5830"/>
<path d="M34.4245 4.38477L42.1273 8.85282L34.4245 13.3209L26.7217 8.85282L34.4245 4.38477Z" fill="#FA693A"/>
<path d="M34.4168 13.3063L34.4084 22.2278L26.6971 17.7744L26.7056 8.85292L34.4168 13.3063Z" fill="#AD4929"/>
<path d="M34.3514 13.3062L42.0627 8.85285L42.0711 17.7743L34.3599 22.2277L34.3514 13.3062Z" fill="#CF5830"/>
<path d="M26.8093 8.76929L34.5121 13.2373L26.8093 17.7054L19.1064 13.2373L26.8093 8.76929Z" fill="#FA693A"/>
<path d="M26.8016 17.6908L26.7932 26.6123L19.0819 22.1589L19.0903 13.2374L26.8016 17.6908Z" fill="#AD4929"/>
<path d="M26.7362 17.6908L34.4474 13.2374L34.4559 22.1588L26.7446 26.6122L26.7362 17.6908Z" fill="#CF5830"/>
<path d="M19.194 13.1538L26.8969 17.6219L19.194 22.0899L11.4912 17.6219L19.194 13.1538Z" fill="#FA693A"/>
<path d="M19.1864 22.0754L19.1779 30.9968L11.4667 26.5434L11.4751 17.622L19.1864 22.0754Z" fill="#AD4929"/>
<path d="M19.1209 22.0753L26.8322 17.6219L26.8407 26.5433L19.1294 30.9967L19.1209 22.0753Z" fill="#CF5830"/>
<path d="M11.5788 17.5386L19.2816 22.0066L11.5788 26.4747L3.87598 22.0066L11.5788 17.5386Z" fill="#FA693A"/>
<path d="M11.5711 26.4601L11.5627 35.3816L3.85142 30.9282L3.85987 22.0067L11.5711 26.4601Z" fill="#AD4929"/>
<path d="M11.5057 26.46L19.217 22.0067L19.2254 30.9281L11.5142 35.3815L11.5057 26.46Z" fill="#CF5830"/>
<path d="M49.6559 4.38477L57.3588 8.85282L49.6559 13.3209L41.9531 8.85282L49.6559 4.38477Z" fill="#FA693A"/>
<path d="M49.6483 13.3063L49.6398 22.2278L41.9286 17.7744L41.937 8.85292L49.6483 13.3063Z" fill="#AD4929"/>
<path d="M49.5829 13.3062L57.2941 8.85285L57.3026 17.7743L49.5913 22.2277L49.5829 13.3062Z" fill="#CF5830"/>
<path d="M57.2712 8.76929L64.974 13.2373L57.2712 17.7054L49.5684 13.2373L57.2712 8.76929Z" fill="#FA693A"/>
<path d="M57.2635 17.6908L57.2551 26.6123L49.5438 22.1589L49.5523 13.2374L57.2635 17.6908Z" fill="#AD4929"/>
<path d="M57.1981 17.6908L64.9094 13.2374L64.9178 22.1588L57.2065 26.6122L57.1981 17.6908Z" fill="#CF5830"/>
<path d="M64.8864 13.1538L72.5892 17.6219L64.8864 22.0899L57.1836 17.6219L64.8864 13.1538Z" fill="#FA693A"/>
<path d="M64.8788 22.0754L64.8703 30.9968L57.159 26.5434L57.1675 17.622L64.8788 22.0754Z" fill="#AD4929"/>
<path d="M64.8133 22.0753L72.5246 17.6219L72.533 26.5433L64.8218 30.9967L64.8133 22.0753Z" fill="#CF5830"/>
<path d="M72.5017 17.5386L80.2045 22.0066L72.5017 26.4747L64.7988 22.0066L72.5017 17.5386Z" fill="#FA693A"/>
<path d="M72.494 26.4601L72.4855 35.3816L64.7743 30.9282L64.7827 22.0067L72.494 26.4601Z" fill="#AD4929"/>
<path d="M72.4286 26.46L80.1398 22.0067L80.1483 30.9281L72.437 35.3815L72.4286 26.46Z" fill="#5A28AD"/>
<path d="M41.8093 78.9231L49.5121 83.3911L41.8093 87.8592L34.1064 83.3911L41.8093 78.9231Z" fill="#FA693A"/>
<path d="M41.8016 87.8446L41.7932 96.7661L34.0819 92.3127L34.0903 83.3913L41.8016 87.8446Z" fill="#AD4929"/>
<path d="M41.7362 87.8446L49.4474 83.3912L49.4559 92.3126L41.7446 96.766L41.7362 87.8446Z" fill="#CF5830"/>
<path d="M72.2712 52.6155L79.974 57.0835L72.2712 61.5516L64.5684 57.0835L72.2712 52.6155Z" fill="#FA693A"/>
<path d="M72.2635 61.537L72.2551 70.4585L64.5438 66.0051L64.5523 57.0836L72.2635 61.537Z" fill="#AD4929"/>
<path d="M72.1981 61.537L79.9094 57.0836L79.9178 66.005L72.2065 70.4584L72.1981 61.537Z" fill="#5A28AD"/>
<path d="M95.8799 43.6165C95.8799 42.149 96.2567 40.8203 97.0103 39.6303C97.7771 38.4272 98.7951 37.4687 100.064 36.7548C101.334 36.0408 102.742 35.6838 104.289 35.6838H117.635V39.8485H104.289C103.125 39.8485 102.127 40.2187 101.294 40.9591C100.474 41.6862 100.064 42.5654 100.064 43.5967V55.9717C100.064 57.0029 100.474 57.8887 101.294 58.6291C102.127 59.3563 103.125 59.7199 104.289 59.7199H110.892C112.069 59.7199 113.067 59.3563 113.887 58.6291C114.707 57.8887 115.117 57.0029 115.117 55.9717V52.283H107.462V48.1183H119.301V55.9518C119.301 57.4062 118.924 58.7349 118.171 59.938C117.417 61.1411 116.399 62.0997 115.117 62.8136C113.847 63.5276 112.439 63.8845 110.892 63.8845H104.289C102.742 63.8845 101.334 63.5276 100.064 62.8136C98.7951 62.0997 97.7771 61.1411 97.0103 59.938C96.2567 58.7349 95.8799 57.4062 95.8799 55.9518V43.6165Z" fill="#F2F2F2"/>
<path d="M123.882 50.7163C123.882 49.3545 124.213 48.1183 124.874 47.0077C125.548 45.8972 126.447 45.0114 127.571 44.3503C128.695 43.676 129.938 43.3389 131.299 43.3389H142.762V63.8845H138.578V47.5234H131.299C130.414 47.5234 129.653 47.8407 129.019 48.4753C128.384 49.0967 128.067 49.8569 128.067 50.7559V56.4278C128.067 57.3268 128.384 58.1003 129.019 58.7481C129.653 59.3827 130.414 59.7 131.299 59.7H136.198V63.8845H131.299C129.938 63.8845 128.695 63.554 127.571 62.893C126.447 62.2187 125.548 61.3196 124.874 60.1958C124.213 59.072 123.882 57.8293 123.882 56.4675V50.7163Z" fill="#F2F2F2"/>
<path d="M147.522 47.5234C147.522 46.3731 147.932 45.3882 148.751 44.5684C149.571 43.7487 150.563 43.3389 151.726 43.3389H157.993C159.685 43.3389 161.073 43.8677 162.157 44.9254C163.215 43.8677 164.603 43.3389 166.322 43.3389H169.416C170.778 43.3389 172.02 43.676 173.144 44.3503C174.268 45.0114 175.16 45.9038 175.822 47.0276C176.496 48.1382 176.833 49.3743 176.833 50.7361V63.8845H172.668V50.7956C172.668 49.8833 172.351 49.1099 171.716 48.4753C171.082 47.8275 170.315 47.5035 169.416 47.5035H166.322C165.74 47.5035 165.245 47.6886 164.835 48.0588C164.425 48.4158 164.22 48.8521 164.22 49.3677V63.8845H160.035V49.3677C160.035 48.8521 159.837 48.4158 159.441 48.0588C159.044 47.6886 158.561 47.5035 157.993 47.5035H151.706V63.8845H147.522V47.5234Z" fill="#F2F2F2"/>
<path d="M181.117 37.7463C181.117 37.0324 181.368 36.4242 181.87 35.9218C182.373 35.4194 182.981 35.1682 183.695 35.1682C184.409 35.1682 185.017 35.4194 185.519 35.9218C186.022 36.4242 186.273 37.0324 186.273 37.7463C186.273 38.4603 186.022 39.0684 185.519 39.5709C185.017 40.0733 184.409 40.3245 183.695 40.3245C182.981 40.3245 182.373 40.0733 181.87 39.5709C181.368 39.0684 181.117 38.4603 181.117 37.7463ZM181.593 43.3389H185.797V63.8845H181.593V43.3389Z" fill="#F2F2F2"/>
<path d="M204.34 37.7463C204.34 37.0324 204.591 36.4242 205.093 35.9218C205.596 35.4194 206.204 35.1682 206.918 35.1682C207.632 35.1682 208.24 35.4194 208.742 35.9218C209.245 36.4242 209.496 37.0324 209.496 37.7463C209.496 38.4603 209.245 39.0684 208.742 39.5709C208.24 40.0733 207.632 40.3245 206.918 40.3245C206.204 40.3245 205.596 40.0733 205.093 39.5709C204.591 39.0684 204.34 38.4603 204.34 37.7463ZM190.556 41.5739C190.556 40.4897 190.821 39.5047 191.35 38.6189C191.892 37.7199 192.606 37.006 193.492 36.4771C194.391 35.9483 195.382 35.6838 196.466 35.6838H201.047V39.8485H196.466C195.99 39.8485 195.581 40.0204 195.237 40.3641C194.906 40.6947 194.741 41.0979 194.741 41.5739V43.3389H209.02V63.8845H204.815V47.5035H194.741V63.8845H190.556V41.5739Z" fill="#F2F2F2"/>
<path d="M213.68 50.7559C213.68 49.3942 214.024 48.1514 214.712 47.0276C215.399 45.9038 216.318 45.0114 217.468 44.3503C218.618 43.676 219.894 43.3389 221.296 43.3389H232.858V47.5234H221.296C220.357 47.5234 219.55 47.8473 218.876 48.4951C218.202 49.1297 217.865 49.9032 217.865 50.8154V56.3881C217.865 57.3004 218.195 58.0805 218.856 58.7283C219.531 59.3761 220.344 59.7 221.296 59.7H232.858V63.8845H221.296C219.894 63.8845 218.618 63.5474 217.468 62.8731C216.318 62.1988 215.399 61.2998 214.712 60.176C214.024 59.039 213.68 57.7896 213.68 56.4278V50.7559Z" fill="#F2F2F2"/>
<path d="M237.24 50.7163C237.24 49.3545 237.571 48.1183 238.232 47.0077C238.906 45.8972 239.805 45.0114 240.929 44.3503C242.053 43.676 243.296 43.3389 244.657 43.3389H256.12V63.8845H251.936V47.5234H244.657C243.772 47.5234 243.011 47.8407 242.377 48.4753C241.742 49.0967 241.425 49.8569 241.425 50.7559V56.4278C241.425 57.3268 241.742 58.1003 242.377 58.7481C243.011 59.3827 243.772 59.7 244.657 59.7H249.556V63.8845H244.657C243.296 63.8845 242.053 63.554 240.929 62.893C239.805 62.2187 238.906 61.3196 238.232 60.1958C237.571 59.072 237.24 57.8293 237.24 56.4675V50.7163Z" fill="#F2F2F2"/>
<path d="M269.388 35.6838H274.603L284.698 63.8845H280.236L277.162 55.3966H269.288L270.796 51.2319H275.654L272.005 41.1574L263.755 63.8845H259.293L269.388 35.6838Z" fill="#F2F2F2"/>
<path d="M287.415 37.7463C287.415 37.0324 287.666 36.4242 288.168 35.9218C288.671 35.4194 289.279 35.1682 289.993 35.1682C290.707 35.1682 291.315 35.4194 291.817 35.9218C292.32 36.4242 292.571 37.0324 292.571 37.7463C292.571 38.4603 292.32 39.0684 291.817 39.5709C291.315 40.0733 290.707 40.3245 289.993 40.3245C289.279 40.3245 288.671 40.0733 288.168 39.5709C287.666 39.0684 287.415 38.4603 287.415 37.7463ZM287.891 43.3389H292.095V63.8845H287.891V43.3389Z" fill="#F2F2F2"/>
</svg>
