<svg width="50" height="50" viewBox="0 0 50 50" fill="none" xmlns="http://www.w3.org/2000/svg">
<path d="M42.4998 7.25013C40.2089 4.94208 37.482 3.11256 34.478 1.8679C31.4736 0.623253 28.2518 -0.0116202 24.9999 0.000161007C20.6527 0.00441099 16.3827 1.15078 12.6178 3.32446C8.85291 5.49814 5.72523 8.62285 3.54792 12.3856C1.37062 16.1484 0.220187 20.4173 0.211749 24.7645C0.203343 29.112 1.33728 33.3851 3.49999 37.1563L0 50L13.125 46.5625C16.7492 48.5788 20.8215 49.6534 24.9687 49.6875C31.5614 49.6878 37.8874 47.0838 42.5692 42.4425C47.2514 37.8016 49.9108 31.4988 49.9686 24.9063C49.9467 21.6167 49.2754 18.3637 47.9939 15.3339C46.7123 12.3041 44.8451 9.557 42.4998 7.25013ZM24.9999 45.4063C21.3052 45.4088 17.6781 44.4156 14.4999 42.5313L13.7499 42.0625L5.96873 44.125L8.03122 36.5313L7.53122 35.7501C4.87264 31.4585 3.88042 26.3407 4.74255 21.3664C5.60467 16.3922 8.26125 11.9069 12.209 8.76022C16.1568 5.61354 21.1215 4.02408 26.1627 4.29293C31.2039 4.56174 35.9717 6.6702 39.5624 10.2189C43.4873 14.057 45.7342 19.2923 45.8123 24.7813C45.763 30.2685 43.5483 35.5141 39.6505 39.3769C35.753 43.2394 30.4874 45.4066 24.9999 45.4063ZM36.2811 29.9688C35.6561 29.6563 32.6249 28.1563 32.0624 27.9688C31.4999 27.7813 31.0624 27.6563 30.6561 28.2813C30.0449 29.1191 29.3874 29.9223 28.6874 30.6876C28.3436 31.1251 27.9686 31.1563 27.3436 30.6876C23.7802 29.2795 20.8115 26.6857 18.9374 23.3439C18.2812 22.2501 19.5624 22.3126 20.7499 19.9689C20.8377 19.7998 20.8834 19.6123 20.8834 19.422C20.8834 19.2317 20.8377 19.0442 20.7499 18.8751C20.7499 18.5626 19.3437 15.5001 18.8437 14.2814C18.3437 13.0626 17.8437 13.2501 17.4374 13.2189H16.2187C15.9029 13.2237 15.5918 13.2959 15.3062 13.4306C15.0206 13.5654 14.767 13.7595 14.5624 14.0001C13.8613 14.6819 13.3144 15.5061 12.9586 16.4171C12.6028 17.3281 12.4464 18.3048 12.5 19.2814C12.6959 21.6192 13.5763 23.8473 15.0312 25.6876C17.6943 29.6745 21.344 32.9041 25.6249 35.0626C27.8702 36.3732 30.4796 36.9213 33.0624 36.6251C33.9224 36.4544 34.7371 36.1047 35.453 35.5985C36.1692 35.0926 36.7708 34.4413 37.2186 33.6876C37.6336 32.7676 37.7642 31.7448 37.5936 30.7501C37.3124 30.4376 36.9061 30.2813 36.2811 29.9688Z" fill="white"/>
</svg>
